<?xml version="1.0" encoding="UTF-8"?>
<svg xmlns="http://www.w3.org/2000/svg" xmlns:xlink="http://www.w3.org/1999/xlink" width="128px" height="128px" viewBox="0 0 128 128" version="1.1">
<g id="surface1">
<path style=" stroke:none;fill-rule:nonzero;fill:rgb(95.686275%,26.274511%,21.176471%);fill-opacity:1;" d="M 68.648438 14.949219 L 64.925781 21.75 C 56.023438 37.925781 47.125 54.101562 38.25 70.25 L 30.398438 62.398438 L 27.699219 66.898438 C 19.699219 80.226562 11.726562 93.550781 3.726562 106.875 L 0 113.050781 L 128 113.050781 L 125.550781 107.351562 C 121.449219 97.800781 117.375 88.25 113.273438 78.699219 L 110.898438 73.148438 L 102.425781 81.625 C 92.324219 61.699219 82.226562 41.773438 72.125 21.875 Z M 68.351562 32.449219 C 72.5 40.625 76.648438 48.800781 80.773438 56.976562 L 77.601562 59.699219 L 68.273438 51.699219 L 58.949219 59.699219 L 55.148438 56.425781 C 59.550781 48.449219 63.949219 40.449219 68.351562 32.449219 Z M 68.300781 62.5 L 77.625 70.5 L 84.601562 64.523438 C 88.976562 73.148438 93.324219 81.75 97.699219 90.351562 L 100.25 95.398438 L 108.148438 87.5 C 110.625 93.300781 113.125 99.101562 115.601562 104.875 L 14.449219 104.875 C 20.300781 95.125 26.148438 85.351562 32.023438 75.601562 L 40.148438 83.726562 L 42.773438 78.949219 C 45.550781 73.875 48.351562 68.824219 51.125 63.75 L 58.949219 70.476562 Z M 68.300781 62.5 "/>
</g>
</svg>
