<?xml version="1.0" encoding="UTF-8"?>
<svg xmlns="http://www.w3.org/2000/svg" xmlns:xlink="http://www.w3.org/1999/xlink" width="16px" height="16px" viewBox="0 0 16 16" version="1.1">
<g id="surface1">
<path style=" stroke:none;fill-rule:nonzero;fill:rgb(95.686275%,26.274511%,21.176471%);fill-opacity:1;" d="M 13.921875 0.292969 C 13.382812 0.292969 12.839844 0.507812 12.433594 0.914062 L 4.277344 8.953125 L 3.875 9.335938 C 3.394531 9.425781 2.933594 9.660156 2.570312 10.054688 C 2.035156 10.640625 1.929688 11.355469 1.726562 12.125 C 1.523438 12.894531 1.261719 13.75 0.640625 14.695312 L 0 15.707031 L 1.183594 15.707031 C 3.699219 15.707031 5.359375 14.503906 6.207031 13.65625 L 6.226562 13.636719 C 6.613281 13.242188 6.828125 12.742188 6.910156 12.230469 L 7.230469 11.929688 L 15.386719 3.894531 L 15.386719 3.875 C 16.199219 3.0625 16.199219 1.734375 15.386719 0.921875 C 14.984375 0.511719 14.460938 0.292969 13.921875 0.292969 Z M 13.921875 1.558594 C 14.121094 1.558594 14.3125 1.648438 14.484375 1.820312 C 14.828125 2.164062 14.828125 2.621094 14.484375 2.964844 L 8.679688 8.710938 L 7.511719 7.546875 L 13.339844 1.820312 C 13.511719 1.648438 13.722656 1.558594 13.921875 1.558594 Z M 6.589844 8.453125 L 7.757812 9.617188 L 6.789062 10.5625 L 5.625 9.398438 Z M 4.382812 10.582031 C 4.707031 10.589844 5.054688 10.714844 5.324219 10.960938 C 5.824219 11.417969 5.835938 12.21875 5.304688 12.75 C 4.75 13.304688 3.757812 14.023438 2.3125 14.296875 C 2.621094 13.621094 2.835938 12.992188 2.976562 12.46875 C 3.1875 11.664062 3.347656 11.109375 3.519531 10.921875 C 3.742188 10.679688 4.054688 10.570312 4.382812 10.582031 Z M 4.382812 10.582031 "/>
</g>
</svg>
