<?xml version="1.0" encoding="UTF-8"?>
<svg xmlns="http://www.w3.org/2000/svg" xmlns:xlink="http://www.w3.org/1999/xlink" width="16px" height="16px" viewBox="0 0 16 16" version="1.1">
<g id="surface1">
<path style=" stroke:none;fill-rule:nonzero;fill:rgb(95.686275%,26.274511%,21.176471%);fill-opacity:1;" d="M 14.222656 9.085938 C 12.597656 8.304688 9.976562 7.804688 7.601562 7.804688 C 6.140625 7.804688 5.242188 5.28125 4.996094 3.628906 L 5.9375 2.027344 C 6.609375 0.886719 8.074219 0.507812 9.214844 1.179688 C 9.566406 1.386719 9.855469 1.679688 10.0625 2.027344 Z M 15.554688 11.351562 L 15.667969 11.539062 C 16.339844 12.679688 15.960938 14.148438 14.820312 14.820312 C 14.453125 15.035156 14.035156 15.148438 13.605469 15.148438 L 2.394531 15.148438 C 1.070312 15.148438 0 14.078125 0 12.757812 C 0 12.328125 0.117188 11.910156 0.332031 11.539062 L 3.9375 5.425781 C 4.269531 7.628906 5.648438 9.402344 7.601562 9.402344 C 9.789062 9.402344 12.953125 9.832031 15.554688 11.351562 Z M 15.554688 11.351562 "/>
</g>
</svg>
