<?xml version="1.0" encoding="UTF-8"?>
<svg xmlns="http://www.w3.org/2000/svg" xmlns:xlink="http://www.w3.org/1999/xlink" width="16px" height="16px" viewBox="0 0 16 16" version="1.1">
<g id="surface1">
<path style=" stroke:none;fill-rule:evenodd;fill:rgb(95.686275%,26.274511%,21.176471%);fill-opacity:1;" d="M 0 3.5 C 0 2.671875 0.671875 2 1.5 2 L 14.5 2 C 15.328125 2 16 2.671875 16 3.5 L 16 12.5 C 16 13.328125 15.328125 14 14.5 14 L 1.5 14 C 0.671875 14 0 13.328125 0 12.5 Z M 1.5 3 C 1.226562 3 1 3.226562 1 3.5 L 1 12.5 C 1 12.773438 1.226562 13 1.5 13 L 14.5 13 C 14.773438 13 15 12.773438 15 12.5 L 15 3.5 C 15 3.226562 14.773438 3 14.5 3 Z M 1.5 3 "/>
<path style=" stroke:none;fill-rule:nonzero;fill:rgb(95.686275%,26.274511%,21.176471%);fill-opacity:1;" d="M 8 8.5 C 8 8.226562 8.226562 8 8.5 8 L 13.5 8 C 13.773438 8 14 8.226562 14 8.5 L 14 11.5 C 14 11.773438 13.773438 12 13.5 12 L 8.5 12 C 8.226562 12 8 11.773438 8 11.5 Z M 8 8.5 "/>
</g>
</svg>
