<?xml version="1.0" encoding="UTF-8"?>
<svg xmlns="http://www.w3.org/2000/svg" xmlns:xlink="http://www.w3.org/1999/xlink" width="16px" height="16px" viewBox="0 0 16 16" version="1.1">
<g id="surface1">
<path style=" stroke:none;fill-rule:nonzero;fill:rgb(95.686275%,26.274511%,21.176471%);fill-opacity:1;" d="M 15.097656 3.128906 L 8.230469 0.0429688 C 8.085938 -0.015625 7.941406 -0.015625 7.792969 0.0429688 L 0.902344 3.128906 C 0.671875 3.242188 0.671875 3.59375 0.875 3.710938 L 7.742188 7.316406 C 7.886719 7.402344 8.089844 7.402344 8.234375 7.316406 L 15.101562 3.710938 C 15.359375 3.566406 15.332031 3.214844 15.097656 3.128906 Z M 8.929688 15.960938 L 15.855469 12.292969 C 15.945312 12.234375 16.003906 12.148438 16.003906 12.03125 L 16.003906 4.902344 C 16.003906 4.671875 15.773438 4.523438 15.597656 4.640625 L 8.667969 8.191406 C 8.582031 8.25 8.492188 8.335938 8.492188 8.453125 L 8.492188 15.667969 C 8.492188 15.929688 8.757812 16.074219 8.929688 15.960938 Z M 0 4.902344 L 0 12 C 0 12.117188 0.0585938 12.203125 0.148438 12.261719 L 7.070312 15.929688 C 7.273438 16.042969 7.507812 15.898438 7.507812 15.664062 L 7.507812 8.480469 C 7.507812 8.367188 7.449219 8.25 7.335938 8.21875 L 0.40625 4.640625 C 0.230469 4.523438 0 4.671875 0 4.902344 Z M 0 4.902344 "/>
</g>
</svg>
